<svg id="Capa_1" data-name="Capa 1" xmlns="http://www.w3.org/2000/svg" viewBox="0 0 347.01 126.22"><defs><style>.cls-1{fill:#139b9e;}.cls-2{fill:#76b7be;}.cls-3{fill:#99a0ad;}.cls-4{fill:#d51b3e;}.cls-5{fill:#233746;}.cls-6{fill:#ad2d44;}.cls-7{fill:#037b87;}.cls-8{fill:#243746;}.cls-9{fill:#243847;}.cls-10{fill:#263948;}.cls-11{fill:#253847;}.cls-12{fill:#243846;}.cls-13{fill:#253948;}.cls-14{fill:#283c4a;}.cls-15{fill:#253947;}.cls-16{fill:#2c3f4e;}</style></defs><path class="cls-1" d="M-1107.82,337.8c0,2,0,3.92,0,5.88,0,.58.11.7.66.44l22.64-10.73c.06,0,.1-.08.15-.11.35-.29.72-.11,1.06,0,5,1.59,9.93,3.14,14.89,4.71q14,4.44,28,8.84l6.86,2.18c.28.09.65.1.66.53-3.76,1.8-7.51,3.61-11.28,5.4q-21.67,10.26-43.36,20.53a26,26,0,0,1-4.29,1.43h-2.43c-3.14-.28-6-1.54-9-2.47q-13.79-4.33-27.55-8.71c-4-1.27-8-2.57-12-3.78a1.76,1.76,0,0,1-.84-.39v-1.49a.18.18,0,0,1,.26,0c.17.6.5.63,1,.38,3-1.36,5.91-2.8,8.87-4.18,6.62-3.11,13.23-6.27,19.85-9.38,1.47-.69,2.93-1.4,4.4-2.07a1.58,1.58,0,0,0,1.09-1.72c-.07-1.43,0-2.86,0-4.29C-1108.19,338.45-1108.35,338-1107.82,337.8Z" transform="translate(1143.71 -250.68)"/><path class="cls-2" d="M-1143.53,360.06h-.18v-5.62l.06-.06.08,0a.59.59,0,0,1,.28.46,30.77,30.77,0,0,1,0,4.8A.57.57,0,0,1-1143.53,360.06Z" transform="translate(1143.71 -250.68)"/><path class="cls-3" d="M-1032.94,349.54c-3.22-1-6.42-2.09-9.64-3.11l-37.73-11.92c-1.36-.42-2.73-.82-4.09-1.23-2.54-.83-5.07-1.67-7.61-2.48q-8.54-2.71-17.07-5.39l-25.43-8a11.83,11.83,0,0,1-8.66-11.82c0-4.14-.09-8.29.08-12.43.12-2.66-.28-5.37.51-8a11.69,11.69,0,0,1,5.79-7.24,14.94,14.94,0,0,1,3.94,1.07l27.56,8.71c6.33,2,12.65,4,19,6a1.53,1.53,0,0,1,1,.52c2.75,1.08,5.6,1.85,8.41,2.74q18.84,6,37.7,11.93c1.83.58,3.69,1.1,5.49,1.8a11.74,11.74,0,0,1,7.17,10.5c0,6.23,0,12.47-.22,18.69A11,11,0,0,1-1032.94,349.54Z" transform="translate(1143.71 -250.68)"/><path class="cls-4" d="M-1085.33,294.2c-2.59-.65-5.1-1.55-7.65-2.35q-21.49-6.77-43-13.58a8.76,8.76,0,0,1-.84-.35l29.77-14.09,25.12-11.92a11.73,11.73,0,0,1,8.89-.65q23,7.28,45.91,14.51c.33.1.82,0,1,.52a36.43,36.43,0,0,1-4.91,2.48c-3.86,1.82-7.72,3.65-11.58,5.46-6.15,2.89-12.27,5.83-18.42,8.73-.27.13-.54.33-.88.18l-19.11,9Z" transform="translate(1143.71 -250.68)"/><path class="cls-5" d="M-977.77,310.37a64.07,64.07,0,0,0,9.43-.09,3.52,3.52,0,0,0,3.2-2.34c.81-2.3.45-3.41-1.72-4.51-3.22-1.63-6.48-3.17-9.73-4.73a31.69,31.69,0,0,1-3.41-1.92c-4.13-2.66-5.89-6.53-5.83-11.33a26.86,26.86,0,0,1,.87-6.18c1.4-5.6,5-8.73,10.63-9.81a55.69,55.69,0,0,1,15.09-.47,49.11,49.11,0,0,1,10.34,2c.52.16.73.33.63,1-.39,2.46-.74,4.92-1,7.4-.1.83-.36,1.13-1.25,1.09q-5.24-.22-10.47-.28a51.24,51.24,0,0,0-8.31.15,3.89,3.89,0,0,0-2.83,5.14,3.24,3.24,0,0,0,1.67,1.57c1.55.79,3.13,1.52,4.7,2.26,2.22,1.05,4.44,2.11,6.67,3.14,5.72,2.66,8.2,7.16,7.72,13.4a35.77,35.77,0,0,1-1.19,6.88c-1.43,5.13-4.79,8-10,9a55.93,55.93,0,0,1-14.9.47,73.53,73.53,0,0,1-11.78-2c-.67-.17-.88-.43-.77-1.12.4-2.68.78-5.37,1.12-8.05.09-.75.32-1,1.14-1C-984.77,310.18-981.78,310.24-977.77,310.37Z" transform="translate(1143.71 -250.68)"/><path class="cls-5" d="M-925,322c-3.44-.1-7.22.17-11-.14-6.27-.52-9.93-4.66-9.68-11,.12-3.27.79-6.49,1.23-9.72.87-6.42,1.82-12.83,2.71-19.24a17.48,17.48,0,0,1,1.89-6.59c2.29-3.95,5.88-5.62,10.29-5.61,7.54,0,15.08.14,22.59.84,1.86.17,1.87.16,1.57,2-.4,2.45-.83,4.91-1.17,7.37-.11.78-.4,1-1.18,1-5.52-.08-11-.11-16.55-.15-.4,0-.81,0-1.21.07-1.7.19-2.46.79-2.77,2.51-.38,2-.59,4.07-.92,6.09-.11.72.09.9.81.9,4.39,0,8.79,0,13.18.07,1.25,0,2.5.06,3.74,0,.65,0,.75.16.66.79-.37,2.68-.7,5.37-1,8.06-.07.65-.3.86-1,.85-5.67-.08-11.34-.11-17-.19-.66,0-.9.14-1,.82-.29,2.41-.67,4.81-1,7.22-.26,2,.6,3,2.65,3q8.46.09,16.92.14c.74,0,1.08.09,1,1-.17,2.79-.23,5.6-.3,8.4,0,.69-.24.91-1,1C-916.56,321.91-920.65,321.88-925,322Z" transform="translate(1143.71 -250.68)"/><path class="cls-5" d="M-832.06,270.5c4.95.29,9.9.41,14.83,1,.72.09,1,.22.88,1.05-.5,2.82-.93,5.65-1.35,8.48-.09.62-.43.63-.91.63q-7.85-.07-15.7-.13c-3.58,0-4.23.52-4.79,4-.32,1.94-.53,3.89-.84,5.83-.1.66.16.74.74.75,5.45,0,10.9.1,16.35.12.74,0,.85.18.74.89-.42,2.65-.77,5.3-1.09,8-.08.65-.32.77-.92.76-5.49-.08-11-.11-16.46-.18-.58,0-.83.07-.92.75-.89,6.44-1.83,12.88-2.74,19.32-.07.5-.16.79-.77.79-4.11-.06-8.22-.08-12.34-.1-.47,0-.56-.12-.49-.58q2.21-15.35,4.37-30.7c.51-3.57.93-7.16,1.56-10.71,1.11-6.21,5.63-9.92,11.91-9.95Z" transform="translate(1143.71 -250.68)"/><path class="cls-5" d="M-810.85,322.78c-2,0-3.92,0-5.89,0-.68,0-.84-.19-.75-.85.61-4.09,1.19-8.19,1.77-12.28q1.37-9.53,2.72-19c.9-6.28,1.81-12.57,2.67-18.86.1-.67.34-.83,1-.82,4,.07,7.91.09,11.87.1.59,0,.83.11.74.77-.85,5.79-1.67,11.58-2.5,17.37q-1.47,10.21-2.92,20.43c-.59,4.1-1.18,8.19-1.74,12.3-.1.7-.3,1-1.08.94-2-.07-3.92,0-5.89,0Z" transform="translate(1143.71 -250.68)"/><path class="cls-6" d="M-1061.93,283.14l20.19-9.57,7.75-3.66,7.32-3.46a3.24,3.24,0,0,1,.53-.16c-.07,4,.45,8.12-.43,12.1a11,11,0,0,1-6.21,7.74c-7.9,3.79-15.87,7.44-23.74,11.28A3.72,3.72,0,0,1-1062,294C-1061.88,290.36-1061.93,286.75-1061.93,283.14Z" transform="translate(1143.71 -250.68)"/><path class="cls-7" d="M-1143.53,360.06l0-5.65a19.06,19.06,0,0,1,.59-6,11.68,11.68,0,0,1,6.19-7.11q11.77-5.61,23.58-11.15c2.85-1.35,5.44.31,5.43,3.45,0,1.41,0,2.81,0,4.21a12.39,12.39,0,0,0-.14,3c0,.31,0,.62,0,.93,0,2.81,0,2.79-2.54,3.93s-5.25,2.42-7.86,3.65l-15.84,7.53c-2.75,1.31-5.52,2.58-8.28,3.88C-1143.51,361.24-1143.51,361.26-1143.53,360.06Z" transform="translate(1143.71 -250.68)"/><path class="cls-8" d="M-908.48,339.48c0,2.09,0,4.17,0,6.26,0,.55-.17.67-.69.67s-.48-.37-.46-.75c.09-2.08.17-4.17.27-6.25,0-.45-.19-1.1.62-1.09s1.55-.3,1.8.9c.36,1.76.9,3.49,1.41,5.44.55-1.91,1.08-3.62,1.53-5.35a1.11,1.11,0,0,1,1.26-1c.87,0,1.16.27,1.18,1.1,0,2.09.12,4.17.18,6.26,0,.42.07.78-.58.77s-.6-.37-.61-.79c0-1.75-.08-3.49-.12-5.24a1.26,1.26,0,0,0-.25-1c-.5,1.78-1,3.47-1.44,5.18-.17.68-.52.86-1.18.85a1,1,0,0,1-1.09-.85c-.41-1.74-.91-3.46-1.37-5.18Z" transform="translate(1143.71 -250.68)"/><path class="cls-5" d="M-866.26,354.59q-.13,3.07-.26,6.13c0,.33.07.7-.46.74s-.74-.1-.7-.66q.18-3.3.31-6.62c0-.49.1-.89.71-.83s1.35-.31,1.6.66c.45,1.81.94,3.61,1.42,5.42.43-.09.3-.5.38-.75.44-1.48.89-3,1.25-4.48.28-1.14,1.13-.75,1.8-.76s.56.59.58,1c.08,2.06.16,4.11.21,6.16,0,.36.26.89-.53.91s-.61-.41-.61-.84c0-2,0-4.08,0-6.34a1.3,1.3,0,0,0-.66,1c-.43,1.46-.86,2.92-1.22,4.4-.17.7-.6.72-1.17.73a.88.88,0,0,1-1-.77c-.42-1.74-.91-3.47-1.37-5.21Z" transform="translate(1143.71 -250.68)"/><path class="cls-9" d="M-891.7,345.14c0-1.91,0-3.83,0-5.74,0-.4-.27-1,.57-1s.56.52.55.94c0,2.06,0,4.11-.08,6.16,0,.38.25,1-.46,1s-1.29.26-1.64-.63c-.69-1.76-1.47-3.49-2.21-5.23a2.92,2.92,0,0,0-.57-.91c0,2,0,4,0,6,0,.35.2.81-.53.78s-.63-.28-.62-.74c0-2.15,0-4.3.06-6.45,0-.38-.13-.91.48-.92s1.26-.27,1.6.56c.7,1.72,1.46,3.43,2.19,5.13l.48,1.07Z" transform="translate(1143.71 -250.68)"/><path class="cls-5" d="M-841.1,340.27c0,2,0,4.05,0,6.07,0,.51-.17.62-.64.63s-.51-.23-.51-.63c0-2.15,0-4.3.06-6.45,0-.37-.27-1,.46-1s1.28-.31,1.64.6a60.79,60.79,0,0,0,2.78,6.06v-4.75c0-.44,0-.88,0-1.31s.09-.6.56-.61.65.14.64.63c0,2.19,0,4.37-.1,6.55,0,.34.2.93-.47.9s-1.26.32-1.6-.53c-.78-1.9-1.61-3.77-2.42-5.66l-.24-.56Z" transform="translate(1143.71 -250.68)"/><path class="cls-5" d="M-838.45,357.62c0-1.15,0-2.31,0-3.46,0-.46.16-.57.59-.57s.6.16.58.6c0,.68,0,1.37,0,2.05,0,.46.07.68.6.64a19.1,19.1,0,0,1,2.14,0c.53,0,.63-.19.62-.65,0-.68,0-1.37,0-2.05,0-.41.14-.54.54-.53s.64,0,.64.53c-.05,2.33-.06,4.66-.06,7,0,.45-.17.56-.6.57s-.56-.2-.54-.61c0-.81,0-1.62,0-2.42s-.21-.84-.8-.76a2.62,2.62,0,0,1-.56,0c-2-.06-2-.06-2,2,0,.38,0,.75,0,1.12s-.12.67-.63.67-.52-.29-.52-.66v-3.45Z" transform="translate(1143.71 -250.68)"/><path class="cls-10" d="M-954.21,356.62c0-.84,0-1.68,0-2.52a1.38,1.38,0,0,1,1.45-1.49c1,0,2,.07,3,.1.33,0,.54.08.48.49s-.12.51-.51.5c-.78,0-1.56,0-2.33,0s-.94.19-.89.85a3.93,3.93,0,0,1,0,.84c-.06.52.19.63.65.6.68,0,1.37,0,2,0,.42,0,.53.15.53.54s-.13.56-.53.54c-.72,0-1.43,0-2.15-.07-.38,0-.59.1-.55.52a1.54,1.54,0,0,1,0,.37c-.15,1.79-.1,1.85,1.65,1.85.47,0,.94.05,1.4.06s.59,0,.62.46-.32.53-.65.54c-.91,0-1.81,0-2.71,0a1.42,1.42,0,0,1-1.51-1.54c0-.86,0-1.74,0-2.61Z" transform="translate(1143.71 -250.68)"/><path class="cls-9" d="M-889.73,357.23c0-.81,0-1.62,0-2.43,0-1.15.52-1.63,1.69-1.63.87,0,1.74,0,2.61.05.41,0,.63.12.6.6s-.31.42-.63.41c-.69,0-1.38,0-2.06,0s-1.05.28-1.07,1c0,1.28,0,1.28,1.2,1.31.53,0,1.06,0,1.59,0,.28,0,.56,0,.5.44s-.11.58-.54.57c-.72,0-1.44,0-2.15,0-.45,0-.6.15-.59.6,0,2.49-.24,2.11,2,2.14.4,0,.81,0,1.22,0s.42.25.45.55-.09.45-.41.45c-1,0-2.06.09-3.08,0s-1.37-.59-1.39-1.54,0-1.69,0-2.53Z" transform="translate(1143.71 -250.68)"/><path class="cls-9" d="M-982.19,341.71c0-.87,0-1.75,0-2.62a1.24,1.24,0,0,1,1.23-1.37c1.08-.05,2.18,0,3.26,0,.45,0,.37.28.38.57s-.13.43-.44.42c-.81,0-1.62,0-2.43,0-.61,0-.82.26-.85.83-.08,1.49-.08,1.5,1.39,1.51.41,0,.81,0,1.22,0s.66,0,.65.53-.35.48-.7.48c-.68,0-1.37,0-2,0-.4,0-.52.11-.55.52-.15,2.23-.16,2.23,2.08,2.23h1.22c.39,0,.42.26.43.57s-.14.43-.45.43c-1.06,0-2.12.07-3.18,0a1.26,1.26,0,0,1-1.24-1.37c0-.9,0-1.81,0-2.71Z" transform="translate(1143.71 -250.68)"/><path class="cls-9" d="M-939.92,356.76c0-.9,0-1.8,0-2.7a1.22,1.22,0,0,1,1.3-1.29c1,0,2,0,3,0,.42,0,.62.15.57.61s-.32.44-.65.43l-2.24,0c-.59,0-.87.21-.83.83a5.78,5.78,0,0,1,0,.93c-.05.41.1.56.51.56.71,0,1.43,0,2.15,0,.34,0,.58,0,.58.48s-.21.51-.57.5c-.72,0-1.44,0-2.15,0-.41,0-.58.13-.54.53a.33.33,0,0,1,0,.1c0,2.5-.26,2.12,2,2.15.41,0,.81,0,1.22,0s.41.27.44.55-.15.43-.45.43c-1,0-2,.08-3,0a1.32,1.32,0,0,1-1.43-1.49c0-.87,0-1.74,0-2.62Z" transform="translate(1143.71 -250.68)"/><path class="cls-9" d="M-851.15,357.56c0-.84,0-1.68,0-2.52,0-1,.5-1.52,1.48-1.55s1.93,0,2.89.05c.3,0,.58,0,.54.45s-.1.58-.55.56c-.78,0-1.56,0-2.34,0-1.18,0-.74.88-.84,1.47s.15.9.82.85,1.3,0,2,0c.36,0,.47.13.47.49s-.14.49-.49.48a14.57,14.57,0,0,1-1.87,0c-.77-.1-1,.26-.95.92q0,.47,0,.93c0,.65.26,1,.95.95s1.49,0,2.24,0c.4,0,.53.1.53.52s-.17.46-.49.46c-.91,0-1.81.07-2.71,0-1.22,0-1.66-.52-1.68-1.73v-2.34Z" transform="translate(1143.71 -250.68)"/><path class="cls-9" d="M-930.47,353.79h-1.15c-.55,0-1.09,0-1.15.78s0,1.24.81,1.46c.59.17,1.19.33,1.78.54,1.15.41,1.55,1.31,1.33,2.92-.13,1-.62,1.41-1.87,1.53a11,11,0,0,1-2.69-.12c-.28,0-.53-.08-.49-.5s.23-.52.6-.5c.72,0,1.43.05,2.15.05s1.09-.18,1.16-.91a1.16,1.16,0,0,0-.87-1.43c-.53-.15-1.07-.31-1.6-.49a2.67,2.67,0,0,1-1.17-3.8,1.59,1.59,0,0,1,1.13-.58,11.31,11.31,0,0,1,2.79.06c.3,0,.7,0,.66.56s-.43.48-.8.47Z" transform="translate(1143.71 -250.68)"/><path class="cls-11" d="M-831,357.7c0-.87,0-1.74,0-2.61a1.32,1.32,0,0,1,1.49-1.42c.94,0,1.87,0,2.81,0,.3,0,.65,0,.61.46s-.24.58-.66.56c-.72,0-1.44,0-2.15,0s-1,.23-.93.91a5.89,5.89,0,0,1,0,.84c0,.45.14.6.59.58.68,0,1.37,0,2,0,.45,0,.59.13.59.58s-.33.42-.63.42l-.75,0c-2,0-2,0-1.88,2,0,.54.24.79.79.78.78,0,1.56,0,2.34,0,.42,0,.5.16.56.53s-.25.43-.51.43c-1,0-2.06.05-3.09,0s-1.27-.69-1.3-1.52,0-1.69,0-2.53Z" transform="translate(1143.71 -250.68)"/><path class="cls-12" d="M-986.51,345.91c-.59-.07-1.17-.14-1.76-.19-.34,0-.49-.17-.44-.54s.22-.46.56-.45c.77,0,1.55,0,2.33,0,.55,0,1-.22,1-.85s0-1.21-.73-1.44-1.32-.36-2-.6c-1.06-.4-1.46-1.37-1.24-2.91.13-1,.6-1.35,1.83-1.45a14.14,14.14,0,0,1,2.52.12c.36,0,.55.2.51.6s-.29.44-.65.42a19.06,19.06,0,0,0-2.14-.05.84.84,0,0,0-.94.82c0,.6,0,1.14.69,1.37.52.18,1.06.34,1.59.51,1.46.46,1.91,1.29,1.64,3.05-.16,1.12-.72,1.48-2.27,1.5h-.56Z" transform="translate(1143.71 -250.68)"/><path class="cls-8" d="M-884.32,345.64h1c.64,0,1.1-.2,1.18-.91a1.16,1.16,0,0,0-.86-1.44l-1.51-.46c-1.33-.42-1.79-1.3-1.56-2.95.16-1.12.68-1.52,2.15-1.53a17.48,17.48,0,0,1,2,.14c.32,0,.72,0,.67.53s-.46.46-.81.46l-1.87,0c-.5,0-.95.09-1,.71s-.1,1.23.63,1.48,1.25.38,1.87.59c1.18.4,1.62,1.3,1.42,2.87-.13,1-.63,1.48-1.84,1.61a12.44,12.44,0,0,1-2.79-.14c-.39,0-.42-.24-.42-.56s.17-.42.47-.42h1.21Z" transform="translate(1143.71 -250.68)"/><path class="cls-9" d="M-821.51,346.19h1.12c.6,0,1.13-.15,1.21-.89s-.11-1.29-.9-1.5c-.45-.12-.9-.26-1.34-.4a2.55,2.55,0,0,1-1.51-3.68,1.41,1.41,0,0,1,1.2-.77,10.71,10.71,0,0,1,3,.09c.37.08.53.18.5.6s-.31.39-.59.39l-2,0c-.55,0-1,.08-1.08.75s0,1.21.7,1.45,1.14.33,1.7.51a2.67,2.67,0,0,1,1.22,3.87,1.58,1.58,0,0,1-1,.58,9.34,9.34,0,0,1-3.25,0c-.33,0-.5-.15-.46-.53s.21-.49.55-.46Z" transform="translate(1143.71 -250.68)"/><path class="cls-9" d="M-966.43,345c.42-1.45.84-2.89,1.25-4.33.22-.75.45-1.49.61-2.25s.62-.67,1.06-.54.14.56.06.83c-.63,2.15-1.3,4.28-1.91,6.43-.19.68-.55.85-1.21.85a1,1,0,0,1-1.1-.84c-.58-2.19-1.23-4.36-1.84-6.55-.07-.24-.43-.62,0-.75s.92-.19,1.09.5c.48,1.95,1,3.9,1.54,5.85.07.26.15.52.23.78Z" transform="translate(1143.71 -250.68)"/><path class="cls-5" d="M-929.63,346.2c-2.83,0-2.87,0-2.86-2.85,0-1.25,0-2.49.06-3.74a1.34,1.34,0,0,1,1.49-1.52c1,0,1.93.05,2.89.06.33,0,.53.07.5.48s-.12.51-.49.5c-.72,0-1.44,0-2.15,0s-1.08.23-1.12,1.06.14,1.45,1.22,1.29a12.35,12.35,0,0,1,1.49,0c.41,0,.55.12.54.53s-.19.46-.52.44a10.46,10.46,0,0,0-1.12,0c-.52,0-1.31-.25-1.5.13a4,4,0,0,0-.06,2.19c.06.43.49.44.83.44.72,0,1.43,0,2.15,0,.37,0,.67,0,.66.51s-.29.46-.61.46Z" transform="translate(1143.71 -250.68)"/><path class="cls-9" d="M-843.91,357.72v.37c0,2.23.47,2.65,2.72,2.61a4.64,4.64,0,0,0,.83-.06c.4-.07.45.16.53.46s0,.49-.34.54a6.29,6.29,0,0,1-3.57-.16,2.13,2.13,0,0,1-1.18-1.59,9.47,9.47,0,0,1,0-4.52,2.28,2.28,0,0,1,2.23-1.91,10.36,10.36,0,0,1,2.23.08c.35,0,.54.19.51.61s-.29.47-.62.44l-.84,0c-1.92-.07-2.4.38-2.5,2.34,0,.28,0,.56,0,.84Z" transform="translate(1143.71 -250.68)"/><path class="cls-12" d="M-816.84,343.22c.14-.73,0-1.45.23-2.16a2.48,2.48,0,0,1,2.57-2.12,9.1,9.1,0,0,1,1.95.14c.37.05.56.15.49.59s-.28.48-.65.41A4.53,4.53,0,0,0-813,340c-1.91-.07-2.4.34-2.57,2.23a9.15,9.15,0,0,0,.11,2.61,1.51,1.51,0,0,0,1.62,1.36c.59,0,1.18,0,1.77,0,.31,0,.55,0,.56.41s0,.5-.41.58a7.49,7.49,0,0,1-2.87,0,2.36,2.36,0,0,1-1.89-2.17C-816.78,344.44-816.79,343.81-816.84,343.22Z" transform="translate(1143.71 -250.68)"/><path class="cls-9" d="M-959.47,341.92c0-.37.05-.56.06-.75.15-3.29,1.68-3.68,4.59-3.29.31,0,.67,0,.58.6s-.42.42-.74.42l-.56,0c-2.14-.05-2.61.4-2.68,2.57a8.28,8.28,0,0,0,.1,2.05c.25,1.17.67,1.54,1.84,1.55.53,0,1.06,0,1.59-.06.34,0,.53,0,.56.41s0,.55-.4.6a7.51,7.51,0,0,1-3.06,0,2.48,2.48,0,0,1-1.75-2.31C-959.43,343.05-959.44,342.39-959.47,341.92Z" transform="translate(1143.71 -250.68)"/><path class="cls-11" d="M-858.12,342.88c0,.22,0,.44,0,.65.09,1.93.52,2.33,2.43,2.33.41,0,.81,0,1.22,0s.38.24.43.48,0,.37-.28.49a3.38,3.38,0,0,1-5-2.7,9.85,9.85,0,0,1,.11-3.25,2.43,2.43,0,0,1,2.37-2.24,9.83,9.83,0,0,1,2.23.13c.44,0,.45.3.43.65s-.31.4-.59.37l-.46-.06c-2.36-.13-2.85.34-2.92,2.72v.47Z" transform="translate(1143.71 -250.68)"/><path class="cls-12" d="M-877.29,360.43a7.89,7.89,0,0,0,.84-.05c.33-.05.54,0,.57.39s-.09.55-.49.61a9.59,9.59,0,0,1-2.14.13,2.42,2.42,0,0,1-2.53-2.27,9.94,9.94,0,0,1,.1-4.17,2.33,2.33,0,0,1,2.32-1.93,8.37,8.37,0,0,1,2.23.13c.35.08.48.2.41.56s-.18.48-.55.45a12.53,12.53,0,0,0-1.5,0c-1.15,0-1.55.36-1.8,1.47a9.59,9.59,0,0,0-.14,2.14C-879.94,360-879.41,360.48-877.29,360.43Z" transform="translate(1143.71 -250.68)"/><path class="cls-9" d="M-831.87,343.48c0-1,0-1.93,0-2.89,0-1.15.54-1.67,1.67-1.68.83,0,1.68,0,2.51.09.33,0,.68,0,.64.54s-.4.45-.72.46c-.69,0-1.37,0-2.06,0s-.83.23-.86.82c-.11,1.62-.13,1.62,1.52,1.62h1c.35,0,.59,0,.59.48s-.14.57-.54.52h-.38c-2.27,0-2.27,0-2.27,2.2,0,.31,0,.63,0,.94s-.24.49-.59.49-.6,0-.58-.49,0-1.06,0-1.59v-1.5Z" transform="translate(1143.71 -250.68)"/><path class="cls-13" d="M-925.58,357.45c0-.93,0-1.86,0-2.79,0-.59-.22-.78-.77-.75-.37,0-.74,0-1.11,0s-.6-.06-.57-.5.11-.58.54-.57q2.57.06,5.13.06c.42,0,.44.22.43.53s0,.58-.42.55h-.18c-1.87.09-1.86.09-1.87,2,0,1.46-.05,2.92-.05,4.38,0,.47-.09.66-.61.66s-.61-.22-.6-.67c0-1,0-1.92,0-2.89Z" transform="translate(1143.71 -250.68)"/><path class="cls-11" d="M-877.72,343.17c0-.94,0-1.88,0-2.81,0-.6-.18-.77-.73-.73-.37,0-.75,0-1.12,0s-.54-.16-.54-.55.07-.56.51-.56c1.68,0,3.36,0,5.05,0,.43,0,.5.2.51.57s-.14.58-.54.53h-.09c-1.87.08-1.86.08-1.88,2,0,1.47-.05,2.93-.05,4.4,0,.47-.12.65-.62.65s-.56-.22-.55-.63c0-1,0-1.93,0-2.89Z" transform="translate(1143.71 -250.68)"/><path class="cls-14" d="M-802,342.6c0,.84,0,1.68,0,2.52s.14,1.2,1,1.13c.64-.05,1.3,0,2,0,.37,0,.48.13.49.49s-.12.52-.47.52c-.94,0-1.87.06-2.8,0a1.36,1.36,0,0,1-1.37-1.57q0-2.85.06-5.7c0-.36-.13-.9.62-.87s.53.53.54.92c0,.84,0,1.68,0,2.52Z" transform="translate(1143.71 -250.68)"/><path class="cls-10" d="M-947.91,356.25c0-1,0-1.92,0-2.89,0-.4,0-.73.55-.71s.66.27.65.75c0,1.71-.06,3.42-.07,5.13,0,1.15.08,1.23,1.2,1.24h1.77c.41,0,.51.16.53.56s-.28.46-.59.46c-.87,0-1.74,0-2.61,0a1.35,1.35,0,0,1-1.45-1.47c0-1,0-2.05,0-3.08Z" transform="translate(1143.71 -250.68)"/><path class="cls-9" d="M-824.68,343c0,1.15,0,2.3,0,3.45,0,.46-.11.66-.62.66s-.61-.24-.6-.68c0-2.27.1-4.54.12-6.8,0-.45.08-.68.61-.68s.58.27.57.69c0,1.12,0,2.24,0,3.36Z" transform="translate(1143.71 -250.68)"/><path class="cls-15" d="M-888.71,342.47v-3.35c0-.4,0-.74.58-.65s.59.15.58.65c-.07,2.24-.07,4.48-.09,6.72,0,.42.06.76-.59.76s-.57-.37-.57-.77v-3.36Z" transform="translate(1143.71 -250.68)"/><path class="cls-9" d="M-951.65,342c0,1.15,0,2.31,0,3.46,0,.41-.07.61-.55.61s-.63-.15-.63-.64q.06-3.4,0-6.82c0-.46.1-.65.61-.66s.6.26.59.69c0,1.12,0,2.24,0,3.36Z" transform="translate(1143.71 -250.68)"/><path class="cls-8" d="M-961,341.89c0,1.16,0,2.31,0,3.46,0,.47-.11.66-.62.65s-.55-.22-.55-.62c0-2.31.06-4.62.06-6.92,0-.47.1-.67.62-.66s.53.32.52.73c0,1.12,0,2.24,0,3.36Z" transform="translate(1143.71 -250.68)"/><path class="cls-9" d="M-899.62,342.46c0-1.15,0-2.31,0-3.46,0-.48.1-.66.61-.64s.56.16.55.62c0,2.27,0,4.55,0,6.82,0,.41,0,.71-.57.71s-.61-.23-.6-.68c0-1.12,0-2.25,0-3.37Z" transform="translate(1143.71 -250.68)"/><path class="cls-8" d="M-851.55,342.82c0,1.16,0,2.31,0,3.46,0,.44-.12.6-.58.6s-.6-.13-.59-.59c0-2.34,0-4.67,0-7,0-.39.11-.56.53-.54s.65,0,.64.53c0,1.19,0,2.37,0,3.55Z" transform="translate(1143.71 -250.68)"/><path class="cls-16" d="M-845.09,336.9a.31.31,0,0,1-.18.34c-.55.33-1.11.66-1.66,1-.23.14-.38.14-.54-.09s-.09-.39.1-.55c.43-.35.84-.72,1.28-1.07.15-.12.27-.43.51-.25A2.53,2.53,0,0,1-845.09,336.9Z" transform="translate(1143.71 -250.68)"/><path class="cls-5" d="M-861.7,321.31c-.45-3-.85-6-1.27-9q-1.26-9.15-2.53-18.32c-.9-6.51-1.82-13-2.69-19.52a4.37,4.37,0,0,0-4.43-4.06c-2.09,0-4.18,0-6.27,0v-.07c-1.93,0-3.87.05-5.8,0a4.88,4.88,0,0,0-5,3.3q-10,23.76-20,47.53c-.31.74-.08.78.57.79q6.23,0,12.44.13a1,1,0,0,0,1.13-.8c1.31-3.49,2.66-7,4-10.46.19-.49.35-.83,1-.82,4.55.08,9.11.11,13.66.13.62,0,.77.22.82.8.28,3.51.62,7,.88,10.52.05.67.27.81.89.81,3.89,0,7.79,0,11.68.14C-861.66,322.45-861.57,322.12-861.7,321.31ZM-878,299.47c-1.4-.08-2.81,0-4.21,0v-.07c-1.4,0-2.8,0-4.21,0-.74,0-.73-.21-.5-.79,1.53-3.9,3-7.82,4.56-11.73a34.58,34.58,0,0,0,1.61-5.25c.27-1.27,1.2-.65,1.85-.72s.38.59.38.89c0,4.72.71,9.38,1,14.07.06.9.14,1.8.26,2.69C-877.12,299.22-877.23,299.51-878,299.47Z" transform="translate(1143.71 -250.68)"/><path class="cls-9" d="M-934.17,339.9a2.24,2.24,0,0,0-2.31-1.92c-.87,0-1.75,0-2.62,0-.49,0-.73.12-.71.68,0,1.12,0,2.24,0,3.36h-.07c0,1.19,0,2.37,0,3.55,0,.45.08.63.54.63,1,0,1.93.06,2.9,0a2.14,2.14,0,0,0,2.2-1.79A9.26,9.26,0,0,0-934.17,339.9Zm-1.13,3.68c-.27,1.29-.84,1.66-2.16,1.66-.95,0-1.43-.2-1.23-1.28a9.5,9.5,0,0,0,0-1.77c0-.78,0-1.56,0-2.34,0-.59.13-.87.83-.87,2.12,0,2.63.49,2.63,2.65A9.1,9.1,0,0,1-935.3,343.58Z" transform="translate(1143.71 -250.68)"/><path class="cls-8" d="M-891.44,354.91a2.17,2.17,0,0,0-2-1.81,21.16,21.16,0,0,0-3,0c-.52,0-.68.18-.66.7,0,1.12,0,2.24,0,3.36h-.07v1.68c0,.59,0,1.18,0,1.77s.17.68.62.68c.94,0,1.87.1,2.8.05a2.22,2.22,0,0,0,2.26-1.86A10.23,10.23,0,0,0-891.44,354.91Zm-1.14,3.85a2.35,2.35,0,0,1-3.19,1.47c-.26-.15-.16-.39-.16-.59,0-.84,0-1.68,0-2.53h0c0-.84,0-1.68,0-2.52,0-.41.12-.56.53-.53s.81,0,1.22,0a1.56,1.56,0,0,1,1.59,1.42A9.39,9.39,0,0,1-892.58,358.76Z" transform="translate(1143.71 -250.68)"/><path class="cls-12" d="M-901.16,357a6.94,6.94,0,0,0-.18-2.13c-.37-1.41-1.19-1.94-3-1.93-1.62,0-2.47.6-2.78,1.95a10.58,10.58,0,0,0-.16,3.72c.29,2.19,1.51,3.05,3.73,2.68a2.31,2.31,0,0,0,2.2-2.06A7.94,7.94,0,0,0-901.16,357Zm-1.31,1.66a1.6,1.6,0,0,1-1.82,1.58,1.59,1.59,0,0,1-1.72-1.58,10.46,10.46,0,0,1,0-3.06,1.61,1.61,0,0,1,1.81-1.59,1.58,1.58,0,0,1,1.72,1.59c.07.49.08,1,.12,1.5S-902.39,358.11-902.47,358.63Z" transform="translate(1143.71 -250.68)"/><path class="cls-5" d="M-911.25,340.13a2.25,2.25,0,0,0-2.27-2c-.9,0-1.81,0-2.71,0-.56,0-.66.22-.65.72,0,1.8,0,3.61,0,5.41,0,2.12,0,2.12,2,2.12h.74c1.93,0,2.65-.57,3-2.49A9.73,9.73,0,0,0-911.25,340.13Zm-1.16,3.8a2.35,2.35,0,0,1-3.22,1.38c-.23-.16-.14-.39-.14-.6,0-.81,0-1.62,0-2.43h0c0-.81,0-1.62,0-2.43,0-.55.17-.72.69-.67a10.48,10.48,0,0,0,1.12,0,1.53,1.53,0,0,1,1.56,1.45A9.91,9.91,0,0,1-912.41,343.93Z" transform="translate(1143.71 -250.68)"/><path class="cls-12" d="M-944,340c-.3-1.47-1.17-2.12-2.83-2.15s-2.58.55-3,2.05a14.16,14.16,0,0,0-.22,2.23,16.73,16.73,0,0,0,.2,2.13c.41,1.48,1.23,2,3,2,1.61,0,2.48-.65,2.77-2.09A10.32,10.32,0,0,0-944,340Zm-1.17,3.57c-.2,1.16-.72,1.59-1.8,1.58s-1.53-.39-1.74-1.63a8.56,8.56,0,0,1,.07-3.23,1.52,1.52,0,0,1,1.64-1.34,1.56,1.56,0,0,1,1.77,1.29,2.42,2.42,0,0,1,.1.45c0,.46,0,.93.08,1.43S-945.11,343.05-945.2,343.53Z" transform="translate(1143.71 -250.68)"/><path class="cls-5" d="M-908.82,354.82a2.16,2.16,0,0,0-2.21-1.89c-.93,0-1.87,0-2.8,0-.5,0-.63.17-.62.65,0,1.15,0,2.3,0,3.45h0c0,1.09.06,2.18,0,3.27,0,.62.12.85.72.85.87,0,1.74.06,2.61,0a2.26,2.26,0,0,0,2.32-1.9A10,10,0,0,0-908.82,354.82Zm-1.4,4.52c-.29.8-1.1.82-1.83.79-1.26-.05-1.26-.06-1.26-1.31v-1.77a11.77,11.77,0,0,1,0-1.68c.08-.49-.39-1.21.38-1.44,1.07-.32,2.49.1,2.74.84A6.59,6.59,0,0,1-910.22,359.34Z" transform="translate(1143.71 -250.68)"/><path class="cls-9" d="M-868.88,342.94c1.07-.5,1.43-1.37,1.2-2.77a1.73,1.73,0,0,0-1.84-1.62c-.93-.06-1.87,0-2.8,0-.51,0-.61.22-.61.68,0,2.27,0,4.54-.06,6.81,0,.47,0,.75.64.74s.57-.33.56-.73,0-.87,0-1.3c0-1.42,0-1.4,1.39-1.34a1,1,0,0,1,1.09.83,13.67,13.67,0,0,1,.38,1.53c.12.93.61,1.19,1.54.9C-867.93,345.45-867.81,344-868.88,342.94Zm-1.62-.58c-1.26,0-1.26,0-1.26-1.39,0-.69-.35-1.57,1-1.44s1.92.3,1.92,1.4S-869.21,342.35-870.5,342.36Z" transform="translate(1143.71 -250.68)"/><path class="cls-8" d="M-844.07,340.37a2.1,2.1,0,0,0-1.75-1.61,5.5,5.5,0,0,0-2.14,0,2.13,2.13,0,0,0-1.7,1.56A10.46,10.46,0,0,0-850,343a10.07,10.07,0,0,0,.28,2.29c.41,1.25,1.2,1.75,2.83,1.73s2.47-.48,2.8-1.77A9.68,9.68,0,0,0-844.07,340.37Zm-1.12,4.31a1.56,1.56,0,0,1-1.68,1.31,1.56,1.56,0,0,1-1.73-1.34,2.55,2.55,0,0,1-.11-.55c0-.4,0-.8,0-1.21a5.22,5.22,0,0,1,.12-1.76,1.52,1.52,0,0,1,1.69-1.38,1.54,1.54,0,0,1,1.75,1.42A8.15,8.15,0,0,1-845.19,344.68Z" transform="translate(1143.71 -250.68)"/><path class="cls-9" d="M-971.77,342.14a2.49,2.49,0,0,0,1.14-3c-.21-1-.76-1.41-2.08-1.5-.87-.06-1.75,0-2.62,0-.42,0-.52.23-.52.59,0,2.34,0,4.68-.08,7,0,.48.19.56.61.56s.62-.1.6-.57c0-.75,0-1.5,0-2.24,0-.39.11-.54.53-.54,1.63,0,1.76.08,2.17,1.65a6,6,0,0,1,.2.81c.11.93.64,1.08,1.49.8C-970.87,344.57-970.75,343.16-971.77,342.14Zm-1.91-.61c-1.41.12-1-.8-1-1.53.24-.4-.54-1.35.73-1.32,1.86.05,2.23.23,2.24,1.35S-972.14,341.39-973.68,341.53Z" transform="translate(1143.71 -250.68)"/><path class="cls-5" d="M-955.9,354.55a2.26,2.26,0,0,0-2.31-2,26.15,26.15,0,0,0-2.8,0c-.44,0-.58.17-.57.61,0,1.15,0,2.3,0,3.45h0c0,1.15,0,2.31,0,3.46,0,.48.12.66.62.66.9,0,1.8.1,2.7.06a2.22,2.22,0,0,0,2.34-2A9.53,9.53,0,0,0-955.9,354.55Zm-1.24,3.95a1.41,1.41,0,0,1-1.53,1.21H-959c-1.4,0-1.4,0-1.4-1.36v-1.77h.06c0-.84,0-1.68,0-2.51,0-.4.14-.57.55-.54s.87,0,1.3,0a1.5,1.5,0,0,1,1.43,1.25A8.4,8.4,0,0,1-957.14,358.5Z" transform="translate(1143.71 -250.68)"/><path class="cls-9" d="M-806.48,339.61c-.21-.7-.79-.42-1.25-.49s-.78.19-.93.67c-.71,2.26-1.43,4.5-2.14,6.76-.08.22-.36.57.09.66s.84.23,1-.37.31-1,.46-1.51c.07-.25.13-.51.45-.51.81,0,1.62,0,2.43,0,.32,0,.39.27.46.51a8.2,8.2,0,0,1,.29,1.08c.11.9.62,1,1.43.77C-805,344.66-805.72,342.14-806.48,339.61Zm-1.68,2.16c.16-.55.33-1.11.5-1.66l.23,0c.35,1.2.69,2.4,1,3.62C-808.82,344-808.82,344-808.16,341.77Z" transform="translate(1143.71 -250.68)"/><path class="cls-9" d="M-920.17,338.93c-.17-.63-.47-.76-1-.76s-1,0-1.26.76c-.64,2.17-1.38,4.31-2,6.48-.07.23-.53.65,0,.8.42.11,1,.17,1.06-.53.07-.43.25-.84.36-1.26s.28-.62.71-.55c.85.16,1.78-.36,2.57.3.08.07.07.24.1.36a5.74,5.74,0,0,1,.23.81c.11.87.57,1.17,1.47.88C-918.7,343.8-919.47,341.37-920.17,338.93Zm-.55,3.89c-1.87.11-1.87.12-1.33-1.66.21-.67.43-1.34.64-2h.22c.3,1,.61,2.08.92,3.12C-920.14,342.7-920.31,342.79-920.72,342.82Z" transform="translate(1143.71 -250.68)"/><path class="cls-9" d="M-860.24,346.15c-.69-2.29-1.42-4.57-2.07-6.87-.18-.65-.59-.6-1.06-.59s-.94-.12-1.16.59c-.74,2.47-1.56,4.91-2.35,7.37.94.38,1.33,0,1.47-.85a10.86,10.86,0,0,1,.32-1.07c.06-.21.11-.41.41-.4a9.22,9.22,0,0,1,2.59.13c.54.2.44,1.15.66,1.75a2.09,2.09,0,0,0,.13.35c.24.44.68.26,1,.2S-860.18,346.36-860.24,346.15Zm-2.45-2.85c-.62,0-1.24-.05-1.94-.08.38-1.25.74-2.41,1.1-3.58l.23,0c.32,1.11.62,2.22.95,3.32C-862.24,343.3-862.48,343.31-862.69,343.3Z" transform="translate(1143.71 -250.68)"/><path class="cls-12" d="M-868.75,360.82c-.67-2.23-1.37-4.46-2-6.7-.17-.6-.41-.95-1.12-.77a.83.83,0,0,0-1.17.64c-.69,2.26-1.43,4.51-2.13,6.76-.07.2-.34.53,0,.61s.84.27,1-.29.33-1.07.49-1.6c.07-.21.1-.48.36-.49a10.22,10.22,0,0,1,2.6.07c.6.15.44,1,.66,1.55a5.62,5.62,0,0,0,.2.62c.25.42.69.28,1,.21S-868.69,361-868.75,360.82Zm-2.57-2.85a.27.27,0,0,0-.09,0c-1.78.06-1.78.06-1.28-1.6.21-.7.44-1.4.66-2.09l.21,0c.32,1.06.63,2.13,1,3.18C-870.74,357.87-870.91,358-871.32,358Z" transform="translate(1143.71 -250.68)"/><path class="cls-12" d="M-915.69,360.43c-.7-2.32-1.42-4.63-2.09-6.95-.17-.62-.57-.54-1-.54s-.94-.2-1.15.47c-.79,2.5-1.6,5-2.4,7.49.9.31,1.36,0,1.48-.86a4.86,4.86,0,0,1,.28-1c.06-.19.09-.45.38-.45a9.78,9.78,0,0,1,2.6.07c.58.16.43,1.08.67,1.63.07.14.07.31.13.45.22.47.66.28,1,.24S-915.64,360.63-915.69,360.43Zm-2.34-2.91c-.59,0-1.18,0-1.77,0-.2,0-.26-.14-.21-.31.34-1.11.69-2.22,1-3.32h.21c.32,1.08.63,2.16.94,3.24C-917.76,357.31-917.77,357.51-918,357.52Z" transform="translate(1143.71 -250.68)"/><path class="cls-9" d="M-852.59,354.6a1.41,1.41,0,0,0-1.14-1.1,13.83,13.83,0,0,0-3.52-.11c-.45,0-.45.31-.45.64,0,1.15,0,2.3,0,3.45h0c0,1.18,0,2.37,0,3.55,0,.39.09.56.51.53s.71.05.65-.5c0-.34,0-.68,0-1,0-1.54,0-1.53,1.55-1.52a6.43,6.43,0,0,0,1.38-.17,1.34,1.34,0,0,0,1-1A5.61,5.61,0,0,0-852.59,354.6Zm-2.86,2.84c-1.06,0-1.06,0-1.06-1.49s0-1.54,1-1.54c1.58,0,1.89.24,1.89,1.48S-853.92,357.44-855.45,357.44Z" transform="translate(1143.71 -250.68)"/></svg>